<?xml version="1.0" encoding="UTF-8" standalone="no"?>
<!DOCTYPE svg PUBLIC "-//W3C//DTD SVG 1.1//EN" "http://www.w3.org/Graphics/SVG/1.1/DTD/svg11.dtd">
<svg width="100%" height="100%" viewBox="0 0 2363 2363" version="1.1" xmlns="http://www.w3.org/2000/svg" xmlns:xlink="http://www.w3.org/1999/xlink" xml:space="preserve" xmlns:serif="http://www.serif.com/" style="fill-rule:evenodd;clip-rule:evenodd;stroke-linejoin:round;stroke-miterlimit:2;">
    <g id="Layer1">
        <g transform="matrix(1,0,0,1,245.041,-262.618)">
            <path d="M869.264,1395.45L887.868,1376.85L936.061,1425.19L936.061,1462.4L887.868,1510.59L869.264,1492.13L917.604,1443.79L869.264,1395.45Z" style="fill:rgb(139,8,0);fill-rule:nonzero;"/>
        </g>
        <g transform="matrix(1,0,0,1,-60.8918,-188.163)">
            <path d="M856.473,1380.11L894.047,1417.68L875.443,1436.14L808.646,1369.34L875.443,1302.39L894.047,1321L856.62,1358.43L1241.99,1358.43L1241.99,1380.11L856.473,1380.11Z" style="fill:rgb(139,8,0);fill-rule:nonzero;"/>
        </g>
        <g transform="matrix(1,0,0,1,-932.961,-56.3915)">
            <path d="M1587.88,1293.32C1619.03,1293.32 1641.08,1267.77 1641.08,1237.32C1641.08,1204.77 1620.78,1181.67 1590.68,1181.67C1563.03,1181.67 1545.88,1200.57 1529.08,1218.42C1512.98,1201.27 1494.43,1181.67 1469.93,1181.67C1438.08,1181.67 1416.38,1207.22 1416.38,1237.32C1416.38,1269.87 1437.03,1293.32 1467.13,1293.32C1494.78,1293.32 1511.93,1274.07 1529.08,1256.57C1544.83,1274.07 1563.73,1293.32 1587.88,1293.32ZM1587.88,1266.37C1570.73,1266.37 1558.48,1249.22 1546.23,1236.97C1557.08,1224.72 1572.13,1208.27 1588.93,1208.27C1603.28,1208.27 1614.13,1220.52 1614.13,1237.32C1614.13,1253.07 1602.58,1266.37 1587.88,1266.37ZM1468.88,1266.37C1454.53,1266.37 1443.68,1254.12 1443.68,1237.32C1443.68,1221.57 1454.88,1208.27 1469.93,1208.27C1486.38,1208.27 1502.13,1226.12 1511.58,1237.32C1500.03,1250.97 1485.33,1266.37 1468.88,1266.37Z" style="fill:rgb(139,8,0);fill-rule:nonzero;"/>
        </g>
        <path d="M1566.41,910.756C1566.41,893.348 1580.55,879.215 1597.95,879.215C1615.36,879.215 1629.49,893.348 1629.49,910.756L1629.49,1080.18L1733.66,1080.18L1733.66,910.756C1733.66,893.348 1747.79,879.215 1765.2,879.215C1782.61,879.215 1796.74,893.348 1796.74,910.756L1796.74,1080.18L1900.91,1080.18L1900.91,910.438L1900.91,910.438C1900.75,836.857 1841.88,776.946 1768.7,775.093L1765.2,775.048C1733.67,775.048 1704.63,785.826 1681.58,803.899C1659.39,786.5 1631.64,775.857 1601.45,775.093L1597.95,775.048C1587.09,775.048 1576.53,776.327 1566.41,778.739L1566.41,722.275L1462.25,722.275L1462.25,1080.18L1566.41,1080.18L1566.41,910.756ZM1399.8,1080.18L1399.8,815.049L1295.63,815.049L1295.63,1080.18L1399.8,1080.18ZM1233.19,1080.18L1233.19,722.275L1129.02,722.275L1129.02,1080.18L1233.19,1080.18ZM1066.57,1080.13L1066.57,814.997L962.406,814.997L962.406,1080.13L1066.57,1080.13ZM795.793,778.661C786.762,776.508 777.381,775.259 767.752,775.015L764.252,774.971C732.719,774.971 703.684,785.749 680.628,803.822C658.436,786.422 630.687,775.78 600.503,775.015L597.002,774.971C522.208,774.971 461.465,835.609 461.295,910.361L461.294,910.361L461.294,1080.11L565.461,1080.11L565.461,910.679C565.461,893.271 579.594,879.138 597.002,879.138C614.41,879.138 628.544,893.271 628.544,910.679L628.544,1080.11L732.71,1080.11L732.71,910.679C732.71,893.271 746.844,879.138 764.252,879.138C781.66,879.138 795.793,893.271 795.793,910.679L795.793,1080.11L899.96,1080.11L899.96,722.198L795.793,722.198L795.793,778.661ZM1399.8,790.896L1399.8,722.275L1295.63,722.275L1295.63,790.896L1399.8,790.896ZM1066.57,790.896L1066.57,722.275L962.406,722.275L962.406,790.896L1066.57,790.896Z" style="fill:rgb(139,8,0);"/>
        <g transform="matrix(1,0,0,1,237.714,-54.2531)">
            <path d="M1587.88,1293.32C1619.03,1293.32 1641.08,1267.77 1641.08,1237.32C1641.08,1204.77 1620.78,1181.67 1590.68,1181.67C1563.03,1181.67 1545.88,1200.57 1529.08,1218.42C1512.98,1201.27 1494.43,1181.67 1469.93,1181.67C1438.08,1181.67 1416.38,1207.22 1416.38,1237.32C1416.38,1269.87 1437.03,1293.32 1467.13,1293.32C1494.78,1293.32 1511.93,1274.07 1529.08,1256.57C1544.83,1274.07 1563.73,1293.32 1587.88,1293.32ZM1587.88,1266.37C1570.73,1266.37 1558.48,1249.22 1546.23,1236.97C1557.08,1224.72 1572.13,1208.27 1588.93,1208.27C1603.28,1208.27 1614.13,1220.52 1614.13,1237.32C1614.13,1253.07 1602.58,1266.37 1587.88,1266.37ZM1468.88,1266.37C1454.53,1266.37 1443.68,1254.12 1443.68,1237.32C1443.68,1221.57 1454.88,1208.27 1469.93,1208.27C1486.38,1208.27 1502.13,1226.12 1511.58,1237.32C1500.03,1250.97 1485.33,1266.37 1468.88,1266.37Z" style="fill:rgb(35,98,214);fill-rule:nonzero;"/>
        </g>
        <g transform="matrix(-1,0,0,1,2423.07,-188.163)">
            <path d="M856.448,1380.11L894.021,1417.68L875.417,1436.14L808.62,1369.34L875.417,1302.39L894.021,1321L856.594,1358.43L1241.97,1358.43L1241.97,1380.11L856.448,1380.11Z" style="fill:rgb(35,98,214);fill-rule:nonzero;"/>
        </g>
        <g transform="matrix(1,0,0,1,245.041,-262.618)">
            <path d="M936.061,1462.4L936.061,1425.19L984.401,1376.85L1003,1395.45L954.665,1443.79L1003,1492.13L984.401,1510.59L936.061,1462.4Z" style="fill:rgb(35,98,214);fill-rule:nonzero;"/>
        </g>
        <path d="M1733.66,1451.53L1733.66,1282.1L1629.49,1282.1L1629.49,1451.53C1629.49,1468.39 1616.23,1482.18 1599.58,1483.03L1597.95,1483.07C1581.09,1483.07 1567.3,1469.81 1566.45,1453.15L1566.41,1451.53L1566.41,1282.1L1462.25,1282.1L1462.25,1640.01L1566.41,1640.01L1566.41,1583.54C1576.53,1585.95 1587.09,1587.23 1597.95,1587.23C1629.49,1587.23 1658.52,1576.46 1681.58,1558.38C1704.63,1576.46 1733.67,1587.23 1765.2,1587.23C1840,1587.23 1900.74,1526.6 1900.91,1451.84L1900.91,1451.84L1900.91,1282.1L1796.74,1282.1L1796.74,1451.53C1796.74,1468.39 1783.48,1482.18 1766.82,1483.03L1765.2,1483.07C1748.34,1483.07 1734.55,1469.81 1733.7,1453.15L1733.66,1451.53ZM1295.63,1571.31L1295.63,1639.93L1399.8,1639.93L1399.8,1571.31L1295.63,1571.31ZM962.406,1571.31L962.406,1639.93L1066.57,1639.93L1066.57,1571.31L962.406,1571.31ZM1129.02,1282.02L1129.02,1639.93L1233.19,1639.93L1233.19,1282.02L1129.02,1282.02ZM461.294,1282.02L461.294,1451.77L461.295,1451.77C461.465,1526.52 522.208,1587.16 597.002,1587.16C628.535,1587.16 657.57,1576.38 680.627,1558.31C703.684,1576.38 732.719,1587.16 764.252,1587.16C775.112,1587.16 785.676,1585.88 795.793,1583.47L795.793,1639.93L899.96,1639.93L899.96,1282.02L795.793,1282.02L795.793,1451.45C795.793,1468.31 782.531,1482.1 765.874,1482.95L764.252,1482.99C747.388,1482.99 733.598,1469.73 732.751,1453.07L732.71,1451.45L732.71,1282.02L628.544,1282.02L628.544,1451.45C628.544,1468.31 615.281,1482.1 598.624,1482.95L597.002,1482.99C580.139,1482.99 566.349,1469.73 565.502,1453.07L565.461,1451.45L565.461,1282.02L461.294,1282.02ZM1295.63,1282.07L1295.63,1547.21L1399.8,1547.21L1399.8,1282.07L1295.63,1282.07ZM962.406,1282.02L962.406,1547.16L1066.57,1547.16L1066.57,1282.02L962.406,1282.02Z" style="fill:rgb(35,98,214);"/>
    </g>
</svg>
